<svg width="46" height="33" viewBox="0 0 46 33" fill="none" xmlns="http://www.w3.org/2000/svg">
<path fill-rule="evenodd" clip-rule="evenodd" d="M0.0177912 18.986L0 0.0345993L5.25202 2.1972L5.26574 16.8145L15.6702 27.1995L30.3706 27.1857L40.7556 16.7812L40.742 2.22777L45.9785 0.071537L45.9963 18.9428L32.5421 32.4222L13.4972 32.4401L0.0177912 18.986Z" fill="black"/>
<mask id="mask0" mask-type="alpha" maskUnits="userSpaceOnUse" x="17" y="20" width="12" height="7">
<path d="M22.2311 20.4317L18.236 22.0868L17.2087 24.8833L23.0301 26.8809L27.5958 26.9379L28.3948 21.5732L25.0847 21.3449L22.2311 20.4317Z" fill="#FF0000"/>
</mask>
<g mask="url(#mask0)">
<path fill-rule="evenodd" clip-rule="evenodd" d="M12.6562 16.5285L12.643 2.51112L16.527 4.11039L16.5371 14.9227L24.2314 22.6025L35.1025 22.5923L42.7823 14.898L42.7722 4.11446L46.6447 2.5199L46.6578 16.4966L36.7083 26.4648L22.6244 26.478L12.6562 16.5285Z" fill="#8100D0"/>
</g>
<mask id="mask1" mask-type="alpha" maskUnits="userSpaceOnUse" x="26" y="0" width="20" height="32">
<rect x="26.5955" y="-3.05176e-05" width="19.4045" height="31.8462" fill="#C4C4C4"/>
</mask>
<g mask="url(#mask1)">
<path fill-rule="evenodd" clip-rule="evenodd" d="M6.03586 16.5319L6.02271 2.5145L9.90666 4.11378L9.91681 14.926L17.6111 22.6059L28.4822 22.5957L36.162 14.9014L36.1519 4.11781L40.0244 2.52326L40.0375 16.5L30.088 26.4682L16.0041 26.4814L6.03586 16.5319ZM36.0425 -1.5583L36.0425 3.92117L36.0426 3.92119L36.0426 -1.55828L36.0425 -1.5583Z" fill="#8100D0"/>
</g>
<path d="M29.5363 6.96279L33.4172 5.36478V12.6129H29.5363V6.96279Z" fill="#C1C1C1"/>
<path d="M33.4171 13.5831L29.5363 15.1812V7.93301H33.4171V13.5831Z" fill="#C1C1C1"/>
<path d="M16.5239 6.96279L12.643 5.36478V12.6129H16.5239V6.96279Z" fill="#C1C1C1"/>
<path d="M12.643 13.5831L16.5239 15.1812V7.93301H12.643V13.5831Z" fill="#C1C1C1"/>
</svg>
