<svg width="90" height="205" viewBox="0 0 90 205" fill="none" xmlns="http://www.w3.org/2000/svg">
<g filter="url(#filter0_di)">
<path d="M5.00012 44.122C5.00012 30.543 18.7655 28.3365 23.8637 10.514H65.8394C70.9375 28.3365 84.7029 30.543 84.7029 44.122V182.118C84.7029 182.118 84.7029 194 44.9364 194C5.16986 194 5.00012 182.118 5.00012 182.118V44.122Z" fill="#F8F8F8"/>
</g>
<path d="M5 88.1818C23.3148 98.2188 70.1189 97.5104 84.7028 88.1818C84.7028 98.1006 84.7028 105.422 84.7028 114.16C73.3409 126.404 15.1748 123.919 5 114.16C5.00006 104.015 4.99998 98.2187 5 88.1818Z" fill="#8100D0" fill-opacity="0.8"/>
<path d="M28.3047 105.731C28.1768 106.425 27.8862 107.046 27.4329 107.594C26.9923 108.143 26.3773 108.54 25.5881 108.785C24.8116 109.032 23.8796 109.059 22.7923 108.866L20.5734 108.472L19.6551 113.46L17 112.989L19.3916 100L24.2656 100.864C25.2897 101.046 26.1302 101.374 26.7869 101.849C27.4436 102.324 27.893 102.897 28.1351 103.568C28.3898 104.241 28.4464 104.962 28.3047 105.731ZM23.0657 106.743C23.799 106.873 24.3724 106.808 24.7858 106.548C25.2015 106.276 25.4641 105.842 25.5738 105.247C25.8068 103.981 25.2026 103.221 23.7612 102.965L21.6561 102.592L20.9606 106.37L23.0657 106.743Z" fill="white"/>
<path d="M34.54 102.232L33.1596 115.361L30.4757 115.089L31.8562 101.96L34.54 102.232Z" fill="white"/>
<path d="M40.5203 104.765L40.41 108.072L44.9366 108.218L44.8666 110.315L40.3401 110.17L40.2235 113.667L45.3279 113.831L45.256 115.985L37.455 115.735L37.8955 102.524L45.6966 102.774L45.6247 104.929L40.5203 104.765Z" fill="white"/>
<path d="M61.0258 115.209L58.3343 115.395L51.5935 106.779L52.24 115.815L49.5485 116L48.6051 102.814L51.2965 102.629L58.0387 111.264L57.3908 102.209L60.0823 102.024L61.0258 115.209Z" fill="white"/>
<path d="M69.968 113.939C69.045 114.103 68.182 114.096 67.3789 113.918C66.5885 113.738 65.9247 113.394 65.3874 112.887C64.8502 112.38 64.5022 111.731 64.3433 110.939L67.1881 110.435C67.3242 110.962 67.5916 111.35 67.99 111.6C68.4012 111.847 68.9102 111.917 69.517 111.809C70.1366 111.7 70.5971 111.471 70.8985 111.123C71.1977 110.762 71.3039 110.346 71.2171 109.875C71.1463 109.49 70.968 109.195 70.6821 108.989C70.3961 108.784 70.0573 108.645 69.6655 108.574C69.2841 108.488 68.7613 108.414 68.0972 108.352C67.1917 108.257 66.4455 108.139 65.8584 108C65.2817 107.846 64.7528 107.562 64.2718 107.147C63.8011 106.718 63.4904 106.094 63.3396 105.276C63.198 104.507 63.2706 103.802 63.5575 103.162C63.8444 102.522 64.3144 101.99 64.9676 101.567C65.6186 101.131 66.3992 100.832 67.3095 100.671C68.675 100.429 69.8418 100.562 70.81 101.069C71.7885 101.562 72.4294 102.383 72.7326 103.534L69.812 104.051C69.7045 103.609 69.4411 103.278 69.0219 103.058C68.6131 102.823 68.1116 102.758 67.5173 102.863C66.9989 102.955 66.6057 103.159 66.3376 103.476C66.0821 103.79 66 104.196 66.0914 104.692C66.1554 105.039 66.3228 105.311 66.5938 105.506C66.8752 105.687 67.2002 105.821 67.569 105.909C67.9482 105.983 68.4709 106.057 69.1374 106.131C70.0428 106.227 70.7902 106.351 71.3796 106.502C71.9689 106.654 72.5052 106.943 72.9886 107.37C73.4719 107.797 73.7878 108.413 73.9362 109.22C74.0642 109.914 73.9996 110.592 73.7426 111.252C73.4856 111.913 73.0362 112.486 72.3944 112.971C71.7503 113.444 70.9415 113.767 69.968 113.939Z" fill="white"/>
<g filter="url(#filter1_i)">
<path d="M71.1364 12.8882C71.1364 15.5105 59.4441 17.6364 45.021 17.6364C30.5979 17.6364 18.9056 15.5105 18.9056 12.8882C18.9056 10.2658 30.5979 8.1399 45.021 8.1399C59.4441 8.1399 71.1364 10.2658 71.1364 12.8882Z" fill="#AA7F4C"/>
<path d="M71.1364 12.8882C71.1364 15.5105 59.4441 17.6364 45.021 17.6364C30.5979 17.6364 18.9056 15.5105 18.9056 12.8882C18.9056 10.2658 30.5979 8.1399 45.021 8.1399C59.4441 8.1399 71.1364 10.2658 71.1364 12.8882Z" fill="url(#paint0_linear)"/>
<path d="M18.9056 4.74829H71.1364V12.8882H18.9056V4.74829Z" fill="#AA7F4C"/>
<path d="M18.9056 4.74829H71.1364V12.8882H18.9056V4.74829Z" fill="url(#paint1_linear)"/>
</g>
<g filter="url(#filter2_i)">
<ellipse cx="45.021" cy="4.74825" rx="26.1154" ry="4.74825" fill="#AA7F4C"/>
</g>
<mask id="mask0" mask-type="alpha" maskUnits="userSpaceOnUse" x="18" y="4" width="54" height="14">
<path d="M71.1364 12.8882C71.1364 15.5105 59.4441 17.6364 45.021 17.6364C30.5979 17.6364 18.9056 15.5105 18.9056 12.8882C18.9056 10.2658 30.5979 8.1399 45.021 8.1399C59.4441 8.1399 71.1364 10.2658 71.1364 12.8882Z" fill="#AA7F4C"/>
<path d="M18.9056 4.74829H71.1364V12.8882H18.9056V4.74829Z" fill="#AA7F4C"/>
</mask>
<g mask="url(#mask0)">
<g filter="url(#filter3_f)">
<path fill-rule="evenodd" clip-rule="evenodd" d="M22.2972 1.51465C19.3481 2.3398 17.5489 3.39783 17.5489 4.68873C17.5489 7.34409 30.3384 9.49668 45.4572 9.49668C58.4674 9.49668 69.3579 7.90264 72.1425 5.7659H69.9722C68.6964 6.25171 66.8914 6.70833 64.6412 7.10354C59.7601 7.96083 52.977 8.49668 45.4572 8.49668C37.9376 8.49668 31.0193 7.96087 26.0021 7.10278C23.4855 6.67236 21.4945 6.16861 20.1555 5.63197C19.4812 5.36172 19.03 5.10553 18.7645 4.88644C18.6189 4.76625 18.5668 4.69013 18.5502 4.6595C18.5583 4.5606 18.6128 4.3934 18.8648 4.14992C19.1518 3.87253 19.6281 3.56628 20.33 3.25476C20.8848 3.00857 21.544 2.77477 22.2972 2.55467V1.51465ZM18.5432 4.64409C18.5433 4.64408 18.5438 4.64541 18.5445 4.64807C18.5434 4.64542 18.5431 4.64409 18.5432 4.64409Z" fill="black"/>
</g>
</g>
<defs>
<filter id="filter0_di" x="0.00012207" y="10.514" width="89.7028" height="194.486" filterUnits="userSpaceOnUse" color-interpolation-filters="sRGB">
<feFlood flood-opacity="0" result="BackgroundImageFix"/>
<feColorMatrix in="SourceAlpha" type="matrix" values="0 0 0 0 0 0 0 0 0 0 0 0 0 0 0 0 0 0 127 0"/>
<feOffset dy="6"/>
<feGaussianBlur stdDeviation="2.5"/>
<feColorMatrix type="matrix" values="0 0 0 0 0 0 0 0 0 0 0 0 0 0 0 0 0 0 0.37 0"/>
<feBlend mode="normal" in2="BackgroundImageFix" result="effect1_dropShadow"/>
<feBlend mode="normal" in="SourceGraphic" in2="effect1_dropShadow" result="shape"/>
<feColorMatrix in="SourceAlpha" type="matrix" values="0 0 0 0 0 0 0 0 0 0 0 0 0 0 0 0 0 0 127 0" result="hardAlpha"/>
<feOffset dy="4"/>
<feGaussianBlur stdDeviation="27"/>
<feComposite in2="hardAlpha" operator="arithmetic" k2="-1" k3="1"/>
<feColorMatrix type="matrix" values="0 0 0 0 0.395833 0 0 0 0 0.395833 0 0 0 0 0.395833 0 0 0 0.44 0"/>
<feBlend mode="normal" in2="shape" result="effect2_innerShadow"/>
</filter>
<filter id="filter1_i" x="18.9056" y="2.74829" width="52.2308" height="14.8881" filterUnits="userSpaceOnUse" color-interpolation-filters="sRGB">
<feFlood flood-opacity="0" result="BackgroundImageFix"/>
<feBlend mode="normal" in="SourceGraphic" in2="BackgroundImageFix" result="shape"/>
<feColorMatrix in="SourceAlpha" type="matrix" values="0 0 0 0 0 0 0 0 0 0 0 0 0 0 0 0 0 0 127 0" result="hardAlpha"/>
<feOffset dy="-2"/>
<feGaussianBlur stdDeviation="2"/>
<feComposite in2="hardAlpha" operator="arithmetic" k2="-1" k3="1"/>
<feColorMatrix type="matrix" values="0 0 0 0 0 0 0 0 0 0 0 0 0 0 0 0 0 0 0.25 0"/>
<feBlend mode="normal" in2="shape" result="effect1_innerShadow"/>
</filter>
<filter id="filter2_i" x="18.9056" y="0" width="54.2308" height="11.4965" filterUnits="userSpaceOnUse" color-interpolation-filters="sRGB">
<feFlood flood-opacity="0" result="BackgroundImageFix"/>
<feBlend mode="normal" in="SourceGraphic" in2="BackgroundImageFix" result="shape"/>
<feColorMatrix in="SourceAlpha" type="matrix" values="0 0 0 0 0 0 0 0 0 0 0 0 0 0 0 0 0 0 127 0" result="hardAlpha"/>
<feOffset dx="2" dy="2"/>
<feGaussianBlur stdDeviation="2"/>
<feComposite in2="hardAlpha" operator="arithmetic" k2="-1" k3="1"/>
<feColorMatrix type="matrix" values="0 0 0 0 1 0 0 0 0 1 0 0 0 0 1 0 0 0 0.25 0"/>
<feBlend mode="normal" in2="shape" result="effect1_innerShadow"/>
</filter>
<filter id="filter3_f" x="13.5489" y="-2.48535" width="62.5935" height="15.982" filterUnits="userSpaceOnUse" color-interpolation-filters="sRGB">
<feFlood flood-opacity="0" result="BackgroundImageFix"/>
<feBlend mode="normal" in="SourceGraphic" in2="BackgroundImageFix" result="shape"/>
<feGaussianBlur stdDeviation="2" result="effect1_foregroundBlur"/>
</filter>
<linearGradient id="paint0_linear" x1="92.1644" y1="14.0752" x2="16.8706" y2="18.4843" gradientUnits="userSpaceOnUse">
<stop stop-color="white" stop-opacity="0"/>
<stop offset="0.602083" stop-color="white" stop-opacity="0.14"/>
<stop offset="1" stop-color="white" stop-opacity="0"/>
</linearGradient>
<linearGradient id="paint1_linear" x1="92.1644" y1="14.0752" x2="16.8706" y2="18.4843" gradientUnits="userSpaceOnUse">
<stop stop-color="white" stop-opacity="0"/>
<stop offset="0.602083" stop-color="white" stop-opacity="0.14"/>
<stop offset="1" stop-color="white" stop-opacity="0"/>
</linearGradient>
</defs>
</svg>
