<svg width="124" height="207" viewBox="0 0 124 207" fill="none" xmlns="http://www.w3.org/2000/svg">
<path d="M16.8486 96.7596L33.7907 185.479H33.7916C33.9108 188.062 46.5583 190.149 62.1427 190.149C77.727 190.149 90.3745 188.062 90.4937 185.479H90.4946L106.781 96.7596H16.8486Z" fill="#308DE3"/>
<ellipse cx="61.8586" cy="96.2781" rx="45.0099" ry="9.62779" fill="#59A9F2"/>
<g filter="url(#filter0_i)">
<g opacity="0.25">
<path d="M0 14.9231L31.7717 188.03H31.7726C31.8991 191.331 45.3206 194 61.8586 194C78.3966 194 91.818 191.331 91.9445 188.03H91.9454L123.625 14.9231H0Z" fill="black"/>
<path d="M0 14.9231L31.7717 188.03H31.7726C31.8991 191.331 45.3206 194 61.8586 194C78.3966 194 91.818 191.331 91.9445 188.03H91.9454L123.625 14.9231H0Z" fill="url(#paint0_linear)"/>
</g>
<ellipse cx="61.8586" cy="14.6824" rx="61.8586" ry="14.6824" fill="#BEBEBE"/>
<ellipse cx="61.8586" cy="14.9231" rx="58.4888" ry="12.5161" fill="#B6B6B6"/>
<ellipse cx="61.8586" cy="14.9231" rx="58.4888" ry="12.5161" fill="url(#paint1_linear)"/>
</g>
<g filter="url(#filter1_f)">
<ellipse cx="61.6179" cy="190.871" rx="38.0298" ry="2.16625" fill="#5E5E5E" fill-opacity="0.8"/>
</g>
<defs>
<filter id="filter0_i" x="0" y="0" width="124.717" height="198" filterUnits="userSpaceOnUse" color-interpolation-filters="sRGB">
<feFlood flood-opacity="0" result="BackgroundImageFix"/>
<feBlend mode="normal" in="SourceGraphic" in2="BackgroundImageFix" result="shape"/>
<feColorMatrix in="SourceAlpha" type="matrix" values="0 0 0 0 0 0 0 0 0 0 0 0 0 0 0 0 0 0 127 0" result="hardAlpha"/>
<feOffset dx="1" dy="4"/>
<feGaussianBlur stdDeviation="2"/>
<feComposite in2="hardAlpha" operator="arithmetic" k2="-1" k3="1"/>
<feColorMatrix type="matrix" values="0 0 0 0 0 0 0 0 0 0 0 0 0 0 0 0 0 0 0.09 0"/>
<feBlend mode="normal" in2="shape" result="effect1_innerShadow"/>
</filter>
<filter id="filter1_f" x="10.5881" y="175.705" width="102.06" height="30.3325" filterUnits="userSpaceOnUse" color-interpolation-filters="sRGB">
<feFlood flood-opacity="0" result="BackgroundImageFix"/>
<feBlend mode="normal" in="SourceGraphic" in2="BackgroundImageFix" result="shape"/>
<feGaussianBlur stdDeviation="6.5" result="effect1_foregroundBlur"/>
</filter>
<linearGradient id="paint0_linear" x1="141.047" y1="126.365" x2="-11.072" y2="112.164" gradientUnits="userSpaceOnUse">
<stop stop-color="white" stop-opacity="0"/>
<stop offset="0.45625" stop-color="white" stop-opacity="0.87"/>
<stop offset="0.9874" stop-color="white" stop-opacity="0"/>
</linearGradient>
<linearGradient id="paint1_linear" x1="199.295" y1="34.9008" x2="-61.3772" y2="14.9231" gradientUnits="userSpaceOnUse">
<stop stop-color="white" stop-opacity="0"/>
<stop offset="0.435417" stop-color="white" stop-opacity="0.5"/>
<stop offset="1" stop-color="white" stop-opacity="0"/>
</linearGradient>
</defs>
</svg>
